HIERARCHY
ROOT hip
{
  OFFSET 0.0 0.0 0.0
  CHANNELS 6 Xposition Yposition Zposition Zrotation Yrotation Xrotation
  JOINT abdomen
  {
    OFFSET 0.0 20.6881 -0.73152
    CHANNELS 3 Zrotation Xrotation Yrotation
    JOINT chest
    {
      OFFSET 0.0 11.7043 -0.48768
      CHANNELS 3 Zrotation Xrotation Yrotation
      JOINT neck
      {
        OFFSET 0.0 22.1894 -2.19456
        CHANNELS 3 Zrotation Xrotation Yrotation
        JOINT head
        {
          OFFSET -0.24384 7.07133 1.2192
          CHANNELS 3 Zrotation Xrotation Yrotation
          JOINT leftEye
          {
            OFFSET 4.14528 8.04674 8.04672
            CHANNELS 3 Zrotation Xrotation Yrotation
            End Site
            {
              OFFSET 1.0 0.0 0.0
            }
          }
          JOINT rightEye
          {
            OFFSET -3.6576 8.04674 8.04672
            CHANNELS 3 Zrotation Xrotation Yrotation
            End Site
            {
              OFFSET 1.0 0.0 0.0
            }
          }
        }
      }
      JOINT rCollar
      {
        OFFSET -2.68224 19.2634 -4.8768
        CHANNELS 3 Zrotation Xrotation Yrotation
        JOINT rShldr
        {
          OFFSET -8.77824 -1.95073 1.46304
          CHANNELS 3 Zrotation Xrotation Yrotation
          JOINT rForeArm
          {
            OFFSET -28.1742 -1.7115 0.48768
            CHANNELS 3 Zrotation Xrotation Yrotation
            JOINT rHand
            {
              OFFSET -22.5879 0.773209 7.07136
              CHANNELS 3 Zrotation Xrotation Yrotation
              JOINT rThumb1
              {
                OFFSET -1.2192 -0.487915 3.41376
                CHANNELS 3 Zrotation Xrotation Yrotation
                JOINT rThumb2
                {
                  OFFSET -3.37035 -0.52449 3.41376
                  CHANNELS 3 Zrotation Xrotation Yrotation
                  End Site
                  {
                    OFFSET -1.78271 -1.18214 1.43049
                  }
                }
              }
              JOINT rIndex1
              {
                OFFSET -7.75947 0.938293 5.60832
                CHANNELS 3 Zrotation Xrotation Yrotation
                JOINT rIndex2
                {
                  OFFSET -2.54057 -0.884171 1.56538
                  CHANNELS 3 Zrotation Xrotation Yrotation
                  End Site
                  {
                    OFFSET -1.62519 -0.234802 1.16502
                  }
                }
              }
              JOINT rMid1
              {
                OFFSET -8.24714 1.18213 3.41376
                CHANNELS 3 Zrotation Xrotation Yrotation
                JOINT rMid2
                {
                  OFFSET -3.10165 -0.590103 1.0647
                  CHANNELS 3 Zrotation Xrotation Yrotation
                  End Site
                  {
                    OFFSET -2.48547 -0.328903 0.83742
                  }
                }
              }
              JOINT rRing1
              {
                OFFSET -8.82822 0.546677 1.51678
                CHANNELS 3 Zrotation Xrotation Yrotation
                JOINT rRing2
                {
                  OFFSET -2.60934 -0.819778 -0.0198488
                  CHANNELS 3 Zrotation Xrotation Yrotation
                  End Site
                  {
                    OFFSET -2.33842 -0.294052 0.168128
                  }
                }
              }
              JOINT rPinky1
              {
                OFFSET -8.27202 -0.0477905 -0.4584
                CHANNELS 3 Zrotation Xrotation Yrotation
                JOINT rPinky2
                {
                  OFFSET -1.82734 -0.647385 -0.700984
                  CHANNELS 3 Zrotation Xrotation Yrotation
                  End Site
                  {
                    OFFSET -1.69225 -0.51767 -0.607171
                  }
                }
              }
            }
          }
        }
      }
      JOINT lCollar
      {
        OFFSET 2.68224 19.2634 -4.8768
        CHANNELS 3 Zrotation Xrotation Yrotation
        JOINT lShldr
        {
          OFFSET 8.77824 -1.95073 1.46304
          CHANNELS 3 Zrotation Xrotation Yrotation
          JOINT lForeArm
          {
            OFFSET 28.1742 -1.7115 0.48768
            CHANNELS 3 Zrotation Xrotation Yrotation
            JOINT lHand
            {
              OFFSET 22.5879 0.773209 7.07136
              CHANNELS 3 Zrotation Xrotation Yrotation
              JOINT lThumb1
              {
                OFFSET 1.2192 -0.487915 3.41376
                CHANNELS 3 Zrotation Xrotation Yrotation
                JOINT lThumb2
                {
                  OFFSET 3.37035 -0.52449 3.41376
                  CHANNELS 3 Zrotation Xrotation Yrotation
                  End Site
                  {
                    OFFSET 1.78271 -1.18214 1.43049
                  }
                }
              }
              JOINT lIndex1
              {
                OFFSET 7.75947 0.938293 5.60832
                CHANNELS 3 Zrotation Xrotation Yrotation
                JOINT lIndex2
                {
                  OFFSET 2.54057 -0.884171 1.56538
                  CHANNELS 3 Zrotation Xrotation Yrotation
                  End Site
                  {
                    OFFSET 1.62519 -0.234802 1.16502
                  }
                }
              }
              JOINT lMid1
              {
                OFFSET 8.24714 1.18213 3.41376
                CHANNELS 3 Zrotation Xrotation Yrotation
                JOINT lMid2
                {
                  OFFSET 3.10165 -0.590103 1.0647
                  CHANNELS 3 Zrotation Xrotation Yrotation
                  End Site
                  {
                    OFFSET 2.48547 -0.328903 0.83742
                  }
                }
              }
              JOINT lRing1
              {
                OFFSET 8.82822 0.546677 1.51678
                CHANNELS 3 Zrotation Xrotation Yrotation
                JOINT lRing2
                {
                  OFFSET 2.60934 -0.819778 -0.0198488
                  CHANNELS 3 Zrotation Xrotation Yrotation
                  End Site
                  {
                    OFFSET 2.33842 -0.294052 0.168128
                  }
                }
              }
              JOINT lPinky1
              {
                OFFSET 8.27202 -0.0477905 -0.4584
                CHANNELS 3 Zrotation Xrotation Yrotation
                JOINT lPinky2
                {
                  OFFSET 1.82734 -0.647385 -0.700984
                  CHANNELS 3 Zrotation Xrotation Yrotation
                  End Site
                  {
                    OFFSET 1.69225 -0.51767 -0.607171
                  }
                }
              }
            }
          }
        }
      }
    }
  }
  JOINT rButtock
  {
    OFFSET -8.77824 4.35084 1.2192
    CHANNELS 3 Zrotation Xrotation Yrotation
    JOINT rThigh
    {
      OFFSET 0.0 -1.70687 -2.19456
      CHANNELS 3 Zrotation Xrotation Yrotation
      JOINT rShin
      {
        OFFSET 0.0 -36.8199 0.73152
        CHANNELS 3 Zrotation Xrotation Yrotation
        JOINT rFoot
        {
          OFFSET 0.73152 -45.1104 -5.12064
          CHANNELS 3 Zrotation Xrotation Yrotation
          End Site
          {
            OFFSET -1.1221 -3.69964 12.103
          }
        }
      }
    }
  }
  JOINT lButtock
  {
    OFFSET 8.77824 4.35084 1.2192
    CHANNELS 3 Zrotation Xrotation Yrotation
    JOINT lThigh
    {
      OFFSET 0.0 -1.70687 -2.19456
      CHANNELS 3 Zrotation Xrotation Yrotation
      JOINT lShin
      {
        OFFSET 0.0 -36.8199 0.73152
        CHANNELS 3 Zrotation Xrotation Yrotation
        JOINT lFoot
        {
          OFFSET -0.73152 -45.1104 -5.12064
          CHANNELS 3 Zrotation Xrotation Yrotation
          End Site
          {
            OFFSET 1.1221 -3.69964 12.103
          }
        }
      }
    }
  }
}
MOTION
Frames: 8
Frame Time: 0.00833333
-5.414102000000001 81.5532 41.998900000000006 -10.8019 6.3263 1.9374 14.1037 6.68131 0.65104 0.312766 -5.55518 0.384046 5.82228 -8.7163 1.06797 -9.21504 -8.77947 -1.07741 -0.0 0.0 0.0 -0.0 0.0 0.0 5.98943e-14 7.75309e-14 -2.97866e-14 74.2181 26.1059 6.40603 -13.8362 -6.82204 25.2268 -0.172866 -11.7657 -1.67704 9.88734e-10 -1.03654e-09 -7.68456e-11 1.7098e-09 -1.79442e-09 -1.30705e-10 9.88738e-10 -1.03654e-09 -7.6852e-11 7.73091 5.47488 0.417314 9.88734e-10 -1.03655e-09 -7.68515e-11 2.90554 0.965183 0.102902 9.88738e-10 -1.03654e-09 -7.68508e-11 10.2786 0.731801 0.0259123 9.88729e-10 -1.03654e-09 -7.68472e-11 2.22167 -0.733487 -0.20892 -5.666e-14 -1.19757e-13 4.46209e-14 -15.2452 -24.1473 14.9785 19.3557 -12.2224 -37.1379 0.109565 -9.49992 1.34732 1.06346e-09 1.0753e-09 -1.2692e-11 1.83807e-09 1.85788e-09 -1.45931e-11 1.06346e-09 1.0753e-09 -1.26781e-11 -7.73091 5.47488 -0.417314 1.06346e-09 1.07529e-09 -1.2695e-11 -2.90554 0.965183 -0.102902 1.06346e-09 1.0753e-09 -1.26931e-11 -10.2786 0.731801 -0.0259123 1.06346e-09 1.0753e-09 -1.2698e-11 -2.22167 -0.733487 0.20892 -2.03217e-16 0.0 -3.88251e-19 12.4874 10.8392 -1.72143 -0.006952 8.88084 0.241291 -5.10483 -11.8969 -16.8999 2.03217e-16 0.0 3.88251e-19 13.6997 -45.6714 1.55912 0.158617 25.9424 -0.0925406 2.37453 -1.73531 15.7954
-5.489599 81.281 43.010600000000004 -11.5142 5.8362 1.9393 14.7556 6.5865 0.962959 0.23763 -5.62419 0.472698 5.90065 -8.77629 1.1293 -8.93729 -8.15129 -0.921564 -0.0 0.0 0.0 -0.0 0.0 0.0 -1.05721e-15 2.36436e-13 -2.11954e-14 74.3177 26.0502 6.10999 -13.9475 -6.91205 25.4486 -0.13596 -10.3962 -1.47742 1.78888e-09 -2.344e-09 3.66586e-10 3.08823e-09 -4.04866e-09 6.39821e-10 1.78888e-09 -2.344e-09 3.66575e-10 7.73091 5.47488 0.417314 1.78888e-09 -2.344e-09 3.66579e-10 2.90554 0.965183 0.102902 1.78889e-09 -2.344e-09 3.66579e-10 10.2786 0.731801 0.0259123 1.78888e-09 -2.344e-09 3.6658e-10 2.22167 -0.733487 -0.20892 -1.19068e-13 -3.05388e-13 9.68353e-14 -15.2283 -24.2911 14.9612 19.3308 -12.1927 -37.0791 0.0861878 -8.43002 1.19322 1.02907e-09 9.05417e-10 -9.16407e-11 1.77468e-09 1.56426e-09 -1.54391e-10 1.02906e-09 9.05417e-10 -9.16291e-11 -7.73091 5.47488 -0.417314 1.02907e-09 9.05415e-10 -9.16435e-11 -2.90554 0.965183 -0.102902 1.02906e-09 9.05416e-10 -9.1643e-11 -10.2786 0.731801 -0.0259123 1.02907e-09 9.05418e-10 -9.16487e-11 -2.22167 -0.733487 0.20892 -2.03217e-16 0.0 -3.88251e-19 13.0279 11.1762 -1.58934 -0.0111255 9.30064 0.234388 -5.05863 -11.9996 -16.5698 2.03217e-16 0.0 3.88251e-19 14.5543 -46.0037 1.86364 0.160982 26.0824 -0.0714351 2.5706 -1.92586 16.9311
-5.526093 81.0506 44.085300000000004 -12.0578 5.3648 1.9164 15.0464 6.50462 1.23204 0.277456 -5.65218 0.549053 6.01995 -8.814 1.19967 -8.77544 -7.64151 -0.781865 -0.0 0.0 0.0 -0.0 0.0 0.0 -3.97601e-14 3.29194e-13 -2.85256e-14 74.4284 25.8995 5.78726 -14.0257 -6.97516 25.6057 -0.0982691 -8.90556 -1.26187 2.00388e-09 -2.71751e-09 6.1607e-10 3.45718e-09 -4.69051e-09 1.07337e-09 2.00388e-09 -2.71751e-09 6.16058e-10 7.73091 5.47488 0.417314 2.00387e-09 -2.71751e-09 6.16064e-10 2.90554 0.965183 0.102902 2.00388e-09 -2.71751e-09 6.16062e-10 10.2786 0.731801 0.0259123 2.00387e-09 -2.71751e-09 6.16064e-10 2.22167 -0.733487 -0.20892 -1.49418e-13 -4.11099e-13 1.2588e-13 -15.2289 -24.4086 14.9366 19.3038 -12.1606 -37.0155 0.0763438 -7.85838 1.11147 8.3699e-10 5.89157e-10 -8.22173e-11 1.44022e-09 1.01701e-09 -1.40911e-10 8.36987e-10 5.89158e-10 -8.22078e-11 -7.73091 5.47488 -0.417314 8.36992e-10 5.89157e-10 -8.22205e-11 -2.90554 0.965183 -0.102902 8.36981e-10 5.89157e-10 -8.22205e-11 -10.2786 0.731801 -0.0259123 8.36992e-10 5.89158e-10 -8.22269e-11 -2.22167 -0.733487 0.20892 -2.03217e-16 0.0 -3.88251e-19 13.3185 11.5903 -1.44007 -0.0154424 9.819 0.232671 -5.01462 -12.0339 -16.3199 2.03217e-16 0.0 3.88251e-19 15.119 -46.1066 2.26434 0.164151 26.2683 -0.0544048 2.72506 -2.03966 17.8312
-5.508985 80.8558 45.22630000000001 -12.3466 4.9143 1.8476 14.8867 6.44727 1.44394 0.48859 -5.62695 0.610427 6.20485 -8.80576 1.28389 -8.8139 -7.34188 -0.669049 -0.0 0.0 0.0 -0.0 0.0 0.0 -4.77897e-14 3.28733e-13 -6.71057e-14 74.5542 25.6275 5.43089 -14.0666 -7.00777 25.6892 -0.0578021 -7.16115 -1.01133 1.27432e-09 -1.55091e-09 5.90131e-10 2.19642e-09 -2.67293e-09 1.02823e-09 1.27432e-09 -1.5509e-09 5.90121e-10 7.73091 5.47488 0.417314 1.27432e-09 -1.55091e-09 5.90129e-10 2.90554 0.965183 0.102902 1.27433e-09 -1.55091e-09 5.90126e-10 10.2786 0.731801 0.0259123 1.27432e-09 -1.5509e-09 5.9013e-10 2.22167 -0.733487 -0.20892 -1.29388e-13 -4.00198e-13 1.20609e-13 -15.2451 -24.4927 14.8982 19.2734 -12.1245 -36.9438 0.0791209 -7.92356 1.1211 3.86515e-10 -2.08066e-11 8.2452e-11 6.61201e-10 -3.93275e-11 1.41886e-10 3.86512e-10 -2.08049e-11 8.24597e-11 -7.73091 5.47488 -0.417314 3.86518e-10 -2.08062e-11 8.24474e-11 -2.90554 0.965183 -0.102902 3.86507e-10 -2.08066e-11 8.24483e-11 -10.2786 0.731801 -0.0259123 3.86518e-10 -2.0806e-11 8.24412e-11 -2.22167 -0.733487 0.20892 -2.03217e-16 0.0 -3.88251e-19 13.3264 12.1283 -1.2721 -0.0201908 10.4324 0.237478 -4.99456 -12.0197 -16.2041 2.03217e-16 0.0 3.88251e-19 15.3441 -45.9265 2.86554 0.168182 26.5129 -0.0433854 2.85081 -2.15663 18.4197
-5.426056 80.6969 46.43500000000001 -12.3236 4.4823 1.7021 14.3888 6.4139 1.61774 0.824628 -5.56853 0.661634 6.42334 -8.77509 1.37305 -8.95861 -7.15685 -0.574603 -0.0 0.0 0.0 -0.0 0.0 0.0 -3.97935e-14 2.74623e-13 -1.24641e-13 74.6913 25.2432 5.04498 -14.072 -7.01203 25.7001 -0.024345 -5.18011 -0.729331 -6.50502e-11 6.04017e-10 4.02629e-10 -1.16726e-10 1.05157e-09 7.02345e-10 -6.5048e-11 6.04021e-10 4.02625e-10 7.73091 5.47488 0.417314 -6.50522e-11 6.04019e-10 4.02633e-10 2.90554 0.965183 0.102902 -6.50466e-11 6.0402e-10 4.02629e-10 10.2786 0.731801 0.0259123 -6.50515e-11 6.04022e-10 4.02637e-10 2.22167 -0.733487 -0.20892 -7.80583e-14 -3.14677e-13 9.29256e-14 -15.2834 -24.5473 14.8438 19.2402 -12.0852 -36.8657 0.0904766 -8.45236 1.19713 -2.45658e-10 -8.4167e-10 3.45643e-10 -4.30644e-10 -1.46112e-09 5.95493e-10 -2.45662e-10 -8.41667e-10 3.45648e-10 -7.73091 5.47488 -0.417314 -2.45656e-10 -8.41669e-10 3.45636e-10 -2.90554 0.965183 -0.102902 -2.45666e-10 -8.41669e-10 3.45639e-10 -10.2786 0.731801 -0.0259123 -2.45654e-10 -8.41669e-10 3.45631e-10 -2.22167 -0.733487 0.20892 -2.03217e-16 0.0 -3.88251e-19 13.1023 12.7111 -1.07978 -0.0260075 11.2114 0.247329 -4.96981 -11.9258 -16.1441 2.03217e-16 0.0 3.88251e-19 15.3027 -45.4953 3.59751 0.173008 26.8234 -0.0366286 2.95744 -2.2801 18.7918
-5.27719 80.5764 47.70640000000001 -12.0068 4.0333 1.468 13.6683 6.37902 1.77154 1.19303 -5.48937 0.705046 6.64362 -8.75755 1.463 -9.08581 -6.95178 -0.479927 -0.0 0.0 0.0 -0.0 0.0 0.0 -2.37413e-14 1.98101e-13 -1.75863e-13 74.8249 24.7971 4.64625 -14.051 -6.99524 25.6573 -0.00676909 -3.24763 -0.45642 -1.45664e-09 2.79723e-09 1.51489e-10 -2.51971e-09 4.84156e-09 2.66122e-10 -1.45664e-09 2.79723e-09 1.5149e-10 7.73091 5.47488 0.417314 -1.45664e-09 2.79723e-09 1.51499e-10 2.90554 0.965183 0.102902 -1.45664e-09 2.79723e-09 1.51495e-10 10.2786 0.731801 0.0259123 -1.45664e-09 2.79723e-09 1.51507e-10 2.22167 -0.733487 -0.20892 -2.23413e-14 -2.05599e-13 5.89839e-14 -15.3433 -24.5854 14.7895 19.2068 -12.0458 -36.7873 0.108117 -9.26313 1.31382 -8.90428e-10 -1.60406e-09 5.99432e-10 -1.54379e-09 -2.7813e-09 1.0327e-09 -8.90433e-10 -1.60405e-09 5.99436e-10 -7.73091 5.47488 -0.417314 -8.90427e-10 -1.60405e-09 5.99424e-10 -2.90554 0.965183 -0.102902 -8.90436e-10 -1.60405e-09 5.99428e-10 -10.2786 0.731801 -0.0259123 -8.90423e-10 -1.60405e-09 5.9942e-10 -2.22167 -0.733487 0.20892 -2.03217e-16 0.0 -3.88251e-19 12.6781 13.2924 -0.869901 -0.032466 12.111 0.260515 -4.91559 -11.7309 -16.0781 2.03217e-16 0.0 3.88251e-19 15.0183 -44.906 4.25437 0.178594 27.1657 -0.0311091 2.99354 -2.23358 19.0463
-5.0564160000000005 80.4991 49.032300000000006 -11.4408 3.5637 1.1556 12.8407 6.31714 1.92345 1.50132 -5.40191 0.743036 6.83412 -8.78874 1.5496 -9.073 -6.59201 -0.366595 -0.0 0.0 0.0 -0.0 0.0 0.0 -7.60268e-15 1.30401e-13 -1.95505e-13 74.9422 24.3404 4.25046 -14.0127 -6.96463 25.5795 -0.00333649 -1.64909 -0.231829 -2.34286e-09 4.07869e-09 -6.53636e-11 -4.04996e-09 7.05561e-09 -1.10033e-10 -2.34286e-09 4.0787e-09 -6.53604e-11 7.73091 5.47488 0.417314 -2.34286e-09 4.0787e-09 -6.53509e-11 2.90554 0.965183 0.102902 -2.34286e-09 4.0787e-09 -6.53556e-11 10.2786 0.731801 0.0259123 -2.34286e-09 4.0787e-09 -6.53413e-11 2.22167 -0.733487 -0.20892 1.0851e-14 -1.24032e-13 3.49364e-14 -15.4243 -24.6202 14.7513 19.1759 -12.0093 -36.7149 0.128666 -10.1742 1.44527 -1.3787e-09 -2.03859e-09 7.35898e-10 -2.3867e-09 -3.53282e-09 1.26629e-09 -1.3787e-09 -2.03858e-09 7.35901e-10 -7.73091 5.47488 -0.417314 -1.37869e-09 -2.03859e-09 7.35888e-10 -2.90554 0.965183 -0.102902 -1.3787e-09 -2.03859e-09 7.35894e-10 -10.2786 0.731801 -0.0259123 -1.37869e-09 -2.03859e-09 7.35885e-10 -2.22167 -0.733487 0.20892 -2.03217e-16 0.0 -3.88251e-19 12.0869 13.826 -0.649456 -0.039045 13.0861 0.275306 -4.80798 -11.4136 -15.9443 2.03217e-16 0.0 3.88251e-19 14.5321 -44.2554 4.64265 0.184852 27.506 -0.0237777 2.90562 -1.84125 19.2826
-4.782123 80.4673 50.39600000000001 -10.7157 3.0621 0.8105 11.8227 6.25416 2.08067 1.74616 -5.2975 0.776381 6.98594 -8.90229 1.63272 -8.84277 -5.96569 -0.222789 -0.0 0.0 0.0 -0.0 0.0 0.0 1.55368e-14 6.65173e-14 -1.68172e-13 75.0432 23.8619 3.852 -13.9539 -6.91745 25.461 -0.00348233 -0.41318 -0.0584189 -2.56214e-09 4.05911e-09 -2.82358e-10 -4.42865e-09 7.02077e-09 -4.85082e-10 -2.56214e-09 4.05912e-09 -2.82357e-10 7.73091 5.47488 0.417314 -2.56215e-09 4.05912e-09 -2.82346e-10 2.90554 0.965183 0.102902 -2.56214e-09 4.05912e-09 -2.8235e-10 10.2786 0.731801 0.0259123 -2.56215e-09 4.05912e-09 -2.82337e-10 2.22167 -0.733487 -0.20892 1.20208e-14 -8.83444e-14 2.68029e-14 -15.5324 -24.6453 14.7312 19.149 -11.9777 -36.6521 0.155664 -11.3034 1.60892 -1.72952e-09 -2.00709e-09 7.09529e-10 -2.99244e-09 -3.47544e-09 1.2161e-09 -1.72952e-09 -2.00708e-09 7.09533e-10 -7.73091 5.47488 -0.417314 -1.72952e-09 -2.00709e-09 7.0952e-10 -2.90554 0.965183 -0.102902 -1.72952e-09 -2.00709e-09 7.09526e-10 -10.2786 0.731801 -0.0259123 -1.72951e-09 -2.00709e-09 7.09517e-10 -2.22167 -0.733487 0.20892 -2.03217e-16 0.0 -3.88251e-19 11.2483 14.4023 -0.408935 -0.0454495 14.0882 0.292573 -4.65536 -10.9939 -15.7502 2.03217e-16 0.0 3.88251e-19 13.71 -43.469 4.59514 0.191617 27.8182 -0.0136429 2.64171 -0.944602 19.5704
